<?xml version="1.0" encoding="UTF-8" standalone="no"?>
<svg width="31px" height="49px" viewBox="0 0 31 49" version="1.1" xmlns="http://www.w3.org/2000/svg" xmlns:xlink="http://www.w3.org/1999/xlink">
    <!-- Generator: Sketch 39.1 (31720) - http://www.bohemiancoding.com/sketch -->
    <title>lock</title>
    <desc>Created with Sketch.</desc>
    <defs></defs>
    <g id="Page-1" stroke="none" stroke-width="1" fill="none" fill-rule="evenodd" opacity="0.224172108">
        <g id="icons" transform="translate(-35.000000, -31.000000)" fill="#FFFFFF">
            <path d="M59.2553767,52.2638343 C56.7191739,50.3535184 53.5781026,49.2079358 50.1596105,49.2079358 C46.7426343,49.2079358 43.600047,50.3535184 41.0638442,52.2638343 L41.0638442,43.1386238 C41.0638442,38.1117162 45.1372315,34.034656 50.1596105,34.034656 C55.1819894,34.034656 59.2553767,38.1117162 59.2553767,43.1386238 L59.2553767,52.2638343 L59.2553767,52.2638343 Z M51.6755715,68.9331995 C51.6755715,69.7722819 50.9979369,70.4505275 50.1596105,70.4505275 C49.321284,70.4505275 48.6436494,69.7722819 48.6436494,68.9331995 L48.6436494,62.8638876 C48.6436494,62.0263226 49.321284,61.3465596 50.1596105,61.3465596 C50.9979369,61.3465596 51.6755715,62.0263226 51.6755715,62.8638876 L51.6755715,68.9331995 L51.6755715,68.9331995 Z M62.2872988,55.3060769 L62.2872988,43.1386238 C62.2872988,36.4350688 56.8571263,31 50.1596105,31 C43.4620946,31 38.0319221,36.4350688 38.0319221,43.1386238 L38.0319221,55.3060769 C36.1369708,57.8384973 35,60.9732969 35,64.3812156 C35,72.761418 41.7884736,79.5544954 50.1596105,79.5544954 C58.5307473,79.5544954 65.3192209,72.761418 65.3192209,64.3812156 C65.3192209,60.9732969 64.1822501,57.8384973 62.2872988,55.3060769 L62.2872988,55.3060769 Z" id="lock"></path>
        </g>
    </g>
</svg>